<svg width="20" height="20" viewBox="0 0 20 20" fill="none" xmlns="http://www.w3.org/2000/svg">
<path d="M18.1171 15.8097C16.9509 13.892 15.0842 12.4528 12.8749 11.7678C13.9339 11.1667 14.7568 10.2503 15.2173 9.15951C15.6777 8.06868 15.7503 6.86371 15.4237 5.72972C15.0972 4.59572 14.3897 3.59542 13.4098 2.8825C12.4299 2.16957 11.2319 1.78345 9.99989 1.78345C8.76784 1.78345 7.56986 2.16957 6.58999 2.8825C5.61013 3.59542 4.90258 4.59572 4.57605 5.72972C4.24951 6.86371 4.32205 8.06868 4.78252 9.15951C5.24299 10.2503 6.06592 11.1667 7.12489 11.7678C4.91559 12.4528 3.0489 13.892 1.8827 15.8097C1.82545 15.8996 1.79517 16.0028 1.79517 16.108C1.79517 16.2132 1.82545 16.3164 1.8827 16.4063C1.93612 16.4977 2.0144 16.5737 2.10927 16.6262C2.20415 16.6787 2.31211 16.7057 2.42177 16.7046H17.578C17.6877 16.7057 17.7956 16.6787 17.8905 16.6262C17.9854 16.5737 18.0637 16.4977 18.1171 16.4063C18.1743 16.3164 18.2046 16.2132 18.2046 16.108C18.2046 16.0028 18.1743 15.8996 18.1171 15.8097V15.8097Z" fill="#5A5B80"/>
</svg>
